<svg xmlns="http://www.w3.org/2000/svg" x="0px" y="0px" viewBox="0 0 750 81" style="vertical-align: middle; max-width: 100%; width: 100%;" width="100%"><path d="M0,6c0,10.28,6.21,19.11,15.08,22.95C16.08,41.85,26.85,52,40,52c1,0,1.99-0.07,2.97-0.18  C47.18,59.66,55.47,65,65,65c9.27,0,17.36-5.05,21.68-12.55C94.52,60.78,105.65,66,118,66c15.74,0,29.49-8.46,36.99-21.07  C158.55,46.88,162.65,48,167,48c9.47,0,17.71-5.27,21.95-13.04c4.19,3.16,9.4,5.04,15.05,5.04c4.56,0,8.82-1.22,12.5-3.35  c3.68,2.13,7.94,3.35,12.5,3.35c5.43,0,10.45-1.73,14.54-4.67C251.67,40.8,261.46,44,272,44c16.92,0,31.91-8.25,41.19-20.94  C318.25,27.38,324.82,30,332,30c10.78,0,20.18-5.89,25.18-14.62C364.37,20.79,373.31,24,383,24c8.13,0,15.74-2.26,22.22-6.18  C404.43,21.08,404,24.49,404,28c0,23.75,19.25,43,43,43c19.91,0,36.65-13.53,41.54-31.89C497.71,49.46,511.09,56,526,56  c3.43,0,6.78-0.35,10.02-1.01c7.74,10.81,20.36,17.89,34.65,18C575.23,77.92,581.76,81,589,81c7.93,0,15-3.7,19.58-9.46  c2.63,0.94,5.47,1.46,8.42,1.46c9.71,0,18.12-5.54,22.26-13.62C643.2,68,651.9,74,662,74c5.22,0,10.06-1.6,14.07-4.33  C680.53,76.49,688.24,81,697,81c13.49,0,24.48-10.68,24.98-24.05C729.74,52.71,735,44.47,735,35c0-2-0.24-3.94-0.68-5.8  C743.51,25.5,750,16.51,750,6c0-2.07-0.25-4.08-0.73-6H0.74C0.26,1.92,0,3.93,0,6z M684.22,34.52c-0.44,0.26-0.87,0.53-1.29,0.82  c-0.28-0.42-0.56-0.84-0.87-1.25C682.77,34.25,683.49,34.4,684.22,34.52z" fill="rgba(146, 216, 171, 0.28)"></path></svg>