<svg xmlns="http://www.w3.org/2000/svg" x="0px" y="0px" viewBox="0 0 163.6 102.2" style="vertical-align: middle; max-width: 100%; width: 100%;" width="100%"><g>
	<path d="M163.6,10.1c0,0-60.5,18-154.8-3c36.6,78,117.7,91.2,154.8,90" fill="rgb(233,250,255)"></path>
	<path d="M163.6,102.2c0,0-49.4-2.1-80.3-15.8C47.5,70.5,20.9,44.6,4.3,9.2L0,0l9.9,2.2c92,20.5,153.1,3.3,153.7,3.1v9.6   c-2.4,0.7-57.1,16.9-145.6-0.8C33.7,42.6,57,63.8,87.4,77.3c32.8,14.5,64.8,15.2,76.3,14.9V102.2z" fill="rgb(98,169,187)"></path>
</g></svg>