<svg xmlns="http://www.w3.org/2000/svg" x="0px" y="0px" viewBox="0 0 143.9 187.7" style="vertical-align: middle; max-width: 100%; width: 100%;" width="100%"><g>
	<path d="M71.9,104.1c-17.8,0-32.2-14.4-32.2-32.2c0-17.8,14.4-32.2,32.2-32.2c17.8,0,32.2,14.4,32.2,32.2   C104.1,89.7,89.7,104.1,71.9,104.1z M71.9,55.7c-8.9,0-16.2,7.3-16.2,16.2c0,8.9,7.3,16.2,16.2,16.2s16.2-7.3,16.2-16.2   C88.1,63,80.9,55.7,71.9,55.7z" fill="rgb(30,212,194)"></path>
</g><g>
	<path d="M71.9,187.7l-5-4c-2.7-2.2-67-53.8-67-111.8C0,32.3,32.3,0,71.9,0s71.9,32.3,71.9,71.9c0,57.9-64.2,109.6-67,111.8   L71.9,187.7z M71.9,16C41.1,16,16,41.1,16,71.9c0,41.6,41.4,82,55.9,95c14.5-12.9,55.9-53.4,55.9-95C127.9,41.1,102.8,16,71.9,16z" fill="rgb(30,212,194)"></path>
</g></svg>